<?xml version="1.0" standalone="no"?><svg xmlns="http://www.w3.org/2000/svg" viewBox="0 0 1440 320"><path fill="#5000ca" fill-opacity="1" d="M0,224L18.5,197.3C36.9,171,74,117,111,106.7C147.7,96,185,128,222,170.7C258.5,213,295,267,332,261.3C369.2,256,406,192,443,144C480,96,517,64,554,69.3C590.8,75,628,117,665,144C701.5,171,738,181,775,170.7C812.3,160,849,128,886,96C923.1,64,960,32,997,21.3C1033.8,11,1071,21,1108,53.3C1144.6,85,1182,139,1218,176C1255.4,213,1292,235,1329,213.3C1366.2,192,1403,128,1422,96L1440,64L1440,0L1421.5,0C1403.1,0,1366,0,1329,0C1292.3,0,1255,0,1218,0C1181.5,0,1145,0,1108,0C1070.8,0,1034,0,997,0C960,0,923,0,886,0C849.2,0,812,0,775,0C738.5,0,702,0,665,0C627.7,0,591,0,554,0C516.9,0,480,0,443,0C406.2,0,369,0,332,0C295.4,0,258,0,222,0C184.6,0,148,0,111,0C73.8,0,37,0,18,0L0,0Z"></path></svg>